<svg xmlns="http://www.w3.org/2000/svg" viewBox="0 0 576 512" role="img" aria-labelledby="youtube-title">
  <title id="youtube-title">YouTube</title>
  <path fill="#ff0033" d="M549.7 124.1c-6.3-23.8-25-42.5-48.6-48.9C458.8 64 288 64 288 64S117.2 64 74.9 75.2c-23.6 6.4-42.3 25.1-48.6 48.9C15 167 15 256.4 15 256.4s0 89.4 11.3 132.3c6.3 23.8 25 41.7 48.6 48.1C117.2 448 288 448 288 448s170.8 0 213.1-11.2c23.6-6.4 42.3-24.3 48.6-48.1C561 345.8 561 256.4 561 256.4s0-89.4-11.3-132.3z"/>
  <path fill="#fff" d="m232 336.5 142.7-80.1L232 175.5z"/>
</svg>
